<svg baseProfile="tiny" xmlns="http://www.w3.org/2000/svg" preserveAspectRatio="xMinYMin meet" viewBox="0 0 185 35" width="185" height="35"><title>Shape</title><g fill="none" fill-rule="evenodd"><path d="M9.7 16.57c-.067 0-.133-.02-.188-.065l-9.397-7.4C.045 9.052.005 8.97 0 8.88c-.003-.09.033-.175.1-.234L9.494.08c.123-.114.315-.104.426.018.114.124.105.315-.018.427L.77 8.852l9.116 7.18c.13.102.153.292.05.423-.06.075-.148.115-.237.115z" fill="#000"/></g><g transform="translate(15)"><title>Shape</title><g fill="none" fill-rule="evenodd"><path d="M.302 0C.368 0 .434.02.49.065l9.396 7.4c.07.054.11.136.115.226.005.09-.03.176-.097.235L.506 16.49c-.123.114-.315.104-.426-.018-.113-.124-.104-.315.02-.427l9.13-8.327L.115.538c-.13-.1-.153-.29-.05-.422C.125.04.213 0 .302 0z" fill="#000"/></g></g><g transform="translate(30)"><title>bath</title><g fill="none" fill-rule="evenodd"><g><path d="M14.376 8.125h-.946c.198-.25.32-.563.32-.938 0-.875-.688-1.562-1.563-1.562-.874 0-1.562.688-1.562 1.563 0 .375.125.687.313.937H1.873v-5.64c.053-.105-.052-.61.625-.613H2.5c.003 0 .185 0 .31.066l-.13.118c-.243.245-.243.625 0 .884.245.25.626.25.876 0l1.25-1.25c.243-.244.243-.64 0-.884-.245-.244-.64-.244-.885 0l-.256.267C3.61 1 3.564.938 3.438.875c-.453-.25-.876-.25-.938-.25h-.01C.747.625.625 2.315.625 2.488v5.636c-.346 0-.625.25-.625.625 0 .373.28.624.625.624v1.25c0 1.626 1.063 3 2.5 3.53V15c0 .375.25.625.625.625s.625-.28.625-.625v-.625h6.25V15c0 .375.25.625.625.625s.625-.28.625-.625v-.69c1.716-.332 2.498-2.013 2.5-3.684v-1.25c.346 0 .625-.25.625-.626 0-.375-.28-.625-.625-.625zm-1.25 2.5c-.057 1.588-.58 2.482-1.876 2.5H4.375c-1.38-.004-2.498-1.12-2.5-2.5v-1.25h9.483c-.237.303-.508.584-.734.627-.337.065-.624.28-.624.625 0 .375.25.625.625.625 1.35-.118 1.992-1.254 2.274-1.875h.225v1.25z" fill="#2A3038"/><path d="M5.04 3.75l-.44.443-.62-.62.442-.44.62.618zm1.173-1.872l.618.62-.44.44-.62-.618.444-.442zm0 2.5l.62.62-.444.44-.62-.618.44-.442zm1.874-1.25l.62.62-.444.44-.618-.618.442-.442zm.883 2.936l-.617-.62.443-.44.618.618-.443.442z" fill="#000"/></g></g></g><g transform="translate(50)"><title>bed</title><g fill="none" fill-rule="evenodd"><g transform="translate(.708 .595)" fill="#2A3038"><circle cx="3.125" cy="1.438" r="1.375"/><path d="M0 10.624c0 .376.25.626.625.626s.625-.25.625-.626V7.5h12.5v3.124c0 .375.25.625.626.625.344 0 .624-.25.624-.627V2.5c0-.375-.25-.625-.625-.625-.346 0-.625.25-.625.625v.625h-.624v-.313C13.124 1.25 12.5 0 10.938 0H6.875C6.105.063 5.125.188 5 1.25v1.875H1.25v-1.25C1.25 1.5 1 1.25.625 1.25S0 1.5 0 1.875v8.75zm6.263-9.25c.106-.062.362-.124.612-.124h3.438c.863 0 1.56-.134 1.562 1.563v.312H6.25l.013-1.766v.014zM13.75 6.25H1.25V4.376h12.5V6.25z"/></g></g></g><g transform="translate(75)"><title>Group</title><g fill="none" fill-rule="evenodd"><g fill="#2A3038"><path d="M9.94 3.06h20.65v1.528H9.94zm0 9.175h20.65v1.53H9.94zm0 9.177h9.942v1.53h-9.94zM6.118 7.647h-4.59C.688 7.647 0 6.96 0 6.117V1.53C0 .685.686 0 1.53 0h4.588c.843 0 1.53.686 1.53 1.53v4.588c0 .843-.687 1.53-1.53 1.53zM1.528 1.53v4.588h4.59v-4.59h-4.59zm4.59 15.294h-4.59c-.842 0-1.528-.686-1.528-1.53v-4.588c0-.844.686-1.53 1.53-1.53h4.588c.843 0 1.53.686 1.53 1.53v4.588c0 .844-.687 1.53-1.53 1.53zm-4.59-6.118v4.588h4.59v-4.588h-4.59zM6.118 26h-4.59C.688 26 0 25.314 0 24.47v-4.588c0-.843.686-1.53 1.53-1.53h4.588c.843 0 1.53.687 1.53 1.53v4.59c0 .842-.687 1.528-1.53 1.528zm-4.59-6.118v4.59h4.59v-4.59h-4.59z"/></g></g></g><g transform="translate(115)"><title>map-icon</title><g fill="none" fill-rule="evenodd"><g fill="#2A3038"><g><path d="M17.19 7.252c-1.188 0-2.152-.963-2.152-2.152 0-1.188.964-2.15 2.152-2.15 1.188 0 2.15.962 2.15 2.15 0 1.19-.962 2.152-2.15 2.152zm0 5.703s4.47-5.577 4.47-8.045c0-2.47-2-4.47-4.47-4.47-2.47 0-4.47 2-4.47 4.47 0 2.47 4.47 8.045 4.47 8.045zm-10.4 10.76L2.143 21.8V8.49l4.647 1.915v13.31zm17.507-.278V6.604l-1.682-.896c-.128.475-.33.99-.583 1.523l.635.467v13.308L18.02 19.09v-6.03c-.166.215-.29.37-.35.446l-.48.598-.48-.598c-.056-.072-.17-.212-.32-.406v6.66l-7.97 3.284V9.734l4.21-1.444c-.266-.51-.497-1.01-.67-1.487l-5.17 1.84L.513 6.057V22.89l6.277 2.586 11.23-4.625 6.277 2.586z"/></g></g></g></g><g transform="translate(145)"><title>Shape</title><g fill="none" fill-rule="evenodd"><g transform="translate(.5)" fill="#2A3038"><path d="M14.375.53c-.105-.383-.5-.61-.885-.504l-6.6 1.8c-.384.104-.61.5-.505.9.105.36.48.6.9.506L9.6 2.58v1.14H7.8c-1.72 0-2.935 1.075-3.398 1.735L3.558 6.72h-.544c-.352-.017-1.51-.012-2.31.733C.244 7.86 0 8.46 0 9.12v3h2.412C2.476 13.38 3.54 14.4 4.8 14.4c1.282 0 2.324-1.013 2.387-2.28H9.6v2.28h1.2V2.252l3.07-.837c.384-.095.59-.515.53-.884h-.025zM4.8 13.2c-.662 0-1.2-.538-1.2-1.2 0-.664.538-1.2 1.2-1.2.662 0 1.2.54 1.2 1.2 0 .66-.537 1.2-1.2 1.2zm2.132-2.28C6.535 10.14 5.76 9.6 4.8 9.6c-.934 0-1.735.54-2.132 1.32H1.2v-1.8c0-.358.13-.61.322-.788C2.04 7.86 3 7.92 3 7.92h1.2l1.2-1.8s.844-1.2 2.4-1.2h1.8v6H6.932z"/></g></g></g><g transform="translate(165)"><title>square</title><g fill="none" fill-rule="evenodd"><g fill="#2A3038"><path d="M8.4 4.8H1.8C.804 4.8 0 5.58 0 6.6v6.6C0 14.22.78 15 1.8 15h6.6c.994 0 1.8-.805 1.8-1.8V6.6c0-1.02-.78-1.8-1.8-1.8zm.6 8.4c0 .33-.27.6-.6.6H1.8c-.33 0-.6-.24-.6-.6V6.6c0-.33.27-.6.6-.6h6.6c.33 0 .6.24.6.6v6.6zM8.56.776c-.237-.235-.62-.235-.858 0-.237.234-.237.6 0 .85l.177.174H2.32l.178-.175c.237-.235.237-.615 0-.85-.236-.234-.62-.234-.856 0L0 2.4l1.642 1.624c.236.24.6.24.84 0 .237-.234.237-.614 0-.848L2.322 3H7.88l-.18.176c-.236.235-.236.6 0 .848.238.25.62.24.84 0L10.2 2.4 8.56.776zm2.416 5.664c-.235.237-.235.6 0 .858.234.257.614.24.84 0L12 7.12v5.56l-.175-.178c-.235-.237-.615-.237-.85 0-.234.237-.234.6 0 .856L12.6 15l1.624-1.642c.235-.236.235-.62 0-.856-.234-.237-.614-.237-.848 0l-.175.177V7.12l.177.178c.235.24.6.24.84 0s.234-.62 0-.858L12.6 4.8l-1.624 1.64z"/></g></g></g></svg>