<?xml version="1.0" encoding="UTF-8" standalone="no"?>
<svg width="636px" height="104px" viewBox="0 0 636 104" version="1.1" xmlns="http://www.w3.org/2000/svg" xmlns:xlink="http://www.w3.org/1999/xlink" xmlns:sketch="http://www.bohemiancoding.com/sketch/ns">
    <!-- Generator: Sketch 3.3.2 (12043) - http://www.bohemiancoding.com/sketch -->
    <title>logo</title>
    <desc>Created with Sketch.</desc>
    <defs></defs>
    <g id="Welcome" stroke="none" stroke-width="1" fill="none" fill-rule="evenodd" sketch:type="MSPage">
        <g id="Desktop-HD" sketch:type="MSArtboardGroup" transform="translate(-362.000000, -429.000000)">
            <g id="logo" sketch:type="MSLayerGroup" transform="translate(362.000000, 429.000000)">
                <g id="Group" sketch:type="MSShapeGroup">
                    <g transform="translate(134.000000, 29.000000)" id="Shape" fill="#2D313A">
                        <path d="M1.07593583,23.8117647 L1.07593583,23.8117647 C1.07593583,11.6352941 10.2213904,1.35294118 22.5946524,1.35294118 C29.5882353,1.35294118 33.8919786,3.51764706 37.926738,7.03529412 C38.4647059,7.57647059 39.0026738,8.11764706 39.0026738,8.92941176 C39.0026738,10.2823529 37.926738,11.3647059 36.5818182,11.3647059 C36.0438503,11.3647059 35.2368984,11.0941176 34.9679144,10.8235294 C31.740107,7.84705882 27.9743316,5.95294118 22.5946524,5.95294118 C13.1802139,5.95294118 6.18663102,13.8 6.18663102,23.5411765 L6.18663102,23.5411765 C6.18663102,33.5529412 13.4491979,41.4 22.5946524,41.4 C27.9743316,41.4 31.740107,39.5058824 35.2368984,36.2588235 C35.5058824,35.9882353 36.0438503,35.7176471 36.8508021,35.7176471 C38.1957219,35.7176471 39.2716578,36.8 39.2716578,38.1529412 C39.2716578,38.9647059 39.0026738,39.5058824 38.4647059,39.7764706 C34.1609626,43.5647059 29.5882353,46 22.5946524,46 C10.2213904,45.7294118 1.07593583,35.9882353 1.07593583,23.8117647 L1.07593583,23.8117647 Z"></path>
                        <path d="M52.7208556,41.9411765 L69.9358289,3.78823529 C70.4737968,2.43529412 71.5497326,1.62352941 72.8946524,1.62352941 L73.1636364,1.62352941 C74.5085561,1.62352941 75.584492,2.43529412 76.1224599,3.78823529 L93.3374332,41.9411765 C93.6064171,42.4823529 93.6064171,42.7529412 93.6064171,43.2941176 C93.6064171,44.6470588 92.5304813,45.7294118 91.1855615,45.7294118 C90.1096257,45.7294118 89.3026738,44.9176471 88.7647059,43.8352941 L84.1919786,33.8235294 L60.7903743,33.8235294 L56.2176471,43.8352941 C55.6796791,44.9176471 54.8727273,45.4588235 53.7967914,45.4588235 C52.4518717,45.4588235 51.6449198,44.3764706 51.6449198,43.2941176 C52.4518717,42.7529412 52.4518717,42.4823529 52.7208556,41.9411765 L52.7208556,41.9411765 Z M83.1160428,29.2235294 L73.1636364,7.30588235 L63.2112299,29.2235294 L83.1160428,29.2235294 L83.1160428,29.2235294 Z"></path>
                        <path d="M108.400535,40.0470588 C107.862567,39.7764706 107.593583,38.9647059 107.593583,38.1529412 C107.593583,36.8 108.669519,35.7176471 110.014439,35.7176471 C110.552406,35.7176471 111.090374,35.9882353 111.359358,36.2588235 C115.394118,39.7764706 119.428877,41.4 124.808556,41.4 C130.457219,41.4 134.222995,38.4235294 134.222995,34.0941176 L134.222995,34.0941176 C134.222995,30.0352941 132.071123,27.8705882 123.194652,25.9764706 C113.242246,23.8117647 108.938503,20.5647059 108.938503,13.5294118 L108.938503,13.5294118 C108.938503,6.76470588 114.85615,1.89411765 122.925668,1.89411765 C128.574332,1.89411765 132.609091,3.24705882 136.64385,6.22352941 C137.181818,6.49411765 137.719786,7.30588235 137.719786,8.11764706 C137.719786,9.47058824 136.64385,10.5529412 135.29893,10.5529412 C134.760963,10.5529412 134.222995,10.5529412 133.954011,10.0117647 C130.457219,7.30588235 126.960428,6.22352941 122.925668,6.22352941 C117.277005,6.22352941 113.780214,9.2 113.780214,13.2588235 L113.780214,13.2588235 C113.780214,17.3176471 115.932086,19.4823529 125.346524,21.6470588 C134.760963,23.8117647 139.33369,27.3294118 139.33369,33.8235294 L139.33369,33.8235294 C139.33369,41.1294118 133.147059,46 124.808556,46 C118.352941,45.7294118 113.242246,43.8352941 108.400535,40.0470588 L108.400535,40.0470588 Z"></path>
                        <path d="M152.782888,41.9411765 L169.997861,3.78823529 C170.535829,2.43529412 171.611765,1.62352941 172.956684,1.62352941 L173.225668,1.62352941 C174.570588,1.62352941 175.646524,2.43529412 176.184492,3.78823529 L193.399465,41.9411765 C193.668449,42.4823529 193.668449,42.7529412 193.668449,43.2941176 C193.668449,44.6470588 192.592513,45.7294118 191.247594,45.7294118 C190.171658,45.7294118 189.364706,44.9176471 188.826738,43.8352941 L184.254011,33.8235294 L160.852406,33.8235294 L156.279679,43.8352941 C155.741711,44.9176471 154.934759,45.4588235 153.858824,45.4588235 C152.513904,45.4588235 151.706952,44.3764706 151.706952,43.2941176 C152.513904,42.7529412 152.782888,42.4823529 152.782888,41.9411765 L152.782888,41.9411765 Z M183.178075,29.2235294 L173.225668,7.30588235 L163.273262,29.2235294 L183.178075,29.2235294 L183.178075,29.2235294 Z"></path>
                        <path d="M209.807487,6.49411765 C209.807487,3.78823529 211.959358,1.89411765 214.380214,1.89411765 L215.45615,1.89411765 C217.339037,1.89411765 218.952941,2.97647059 219.759893,4.32941176 L231.057219,23 L242.354545,4.32941176 C243.430481,2.70588235 244.775401,1.89411765 246.658289,1.89411765 L247.734225,1.89411765 C250.424064,1.89411765 252.306952,4.05882353 252.306952,6.49411765 L252.306952,40.5882353 C252.306952,43.2941176 250.15508,45.1882353 247.734225,45.1882353 C245.044385,45.1882353 243.161497,43.0235294 243.161497,40.5882353 L243.161497,19.2117647 L234.822995,31.9294118 C233.747059,33.2823529 232.671123,34.3647059 230.788235,34.3647059 C229.174332,34.3647059 227.829412,33.5529412 226.753476,31.9294118 L218.683957,19.2117647 L218.683957,40.5882353 C218.683957,43.2941176 216.532086,45.1882353 214.11123,45.1882353 C211.690374,45.1882353 209.538503,43.2941176 209.538503,40.5882353 L209.538503,6.49411765 L209.807487,6.49411765 Z"></path>
                        <path d="M270.059893,40.3176471 L270.059893,6.76470588 C270.059893,4.05882353 272.211765,2.16470588 274.63262,2.16470588 L298.303209,2.16470588 C300.724064,2.16470588 302.606952,4.05882353 302.606952,6.49411765 C302.606952,8.92941176 300.724064,10.5529412 298.303209,10.5529412 L279.205348,10.5529412 L279.205348,19.2117647 L295.613369,19.2117647 C298.034225,19.2117647 299.917112,21.1058824 299.917112,23.5411765 C299.917112,25.9764706 298.034225,27.6 295.613369,27.6 L279.205348,27.6 L279.205348,36.5294118 L298.572193,36.5294118 C300.993048,36.5294118 302.875936,38.4235294 302.875936,40.8588235 C302.875936,43.2941176 300.993048,44.9176471 298.572193,44.9176471 L274.63262,44.9176471 C272.211765,45.1882353 270.059893,43.0235294 270.059893,40.3176471 L270.059893,40.3176471 Z"></path>
                        <path d="M317.40107,40.5882353 C316.325134,39.7764706 315.518182,38.4235294 315.518182,37.0705882 C315.518182,34.6352941 317.40107,32.7411765 319.821925,32.7411765 C321.166845,32.7411765 321.973797,33.2823529 322.511765,33.5529412 C325.739572,35.9882353 329.236364,37.3411765 333.540107,37.3411765 C337.305882,37.3411765 339.726738,35.7176471 339.726738,33.2823529 L339.726738,33.2823529 C339.726738,30.8470588 338.381818,29.7647059 331.119251,27.8705882 C322.511765,25.7058824 316.863102,23.2705882 316.863102,14.6117647 L316.863102,14.6117647 C316.863102,6.76470588 323.049733,1.62352941 331.926203,1.62352941 C337.036898,1.62352941 341.609626,2.97647059 345.375401,5.41176471 C346.451337,5.95294118 347.527273,7.30588235 347.527273,9.2 C347.527273,11.6352941 345.644385,13.5294118 343.223529,13.5294118 C342.416578,13.5294118 341.609626,13.2588235 340.802674,12.9882353 C337.574866,11.0941176 334.885027,10.0117647 331.926203,10.0117647 C328.429412,10.0117647 326.546524,11.6352941 326.546524,13.8 L326.546524,13.8 C326.546524,16.5058824 328.429412,17.5882353 335.691979,19.4823529 C344.299465,21.6470588 349.141176,24.8941176 349.141176,32.4705882 L349.141176,32.4705882 C349.141176,41.1294118 342.685561,45.7294118 333.540107,45.7294118 C327.891444,45.7294118 322.242781,44.1058824 317.40107,40.5882353 L317.40107,40.5882353 Z"></path>
                        <path d="M373.887701,10.8235294 L364.742246,10.8235294 C362.32139,10.8235294 360.438503,8.92941176 360.438503,6.49411765 C360.438503,4.05882353 362.32139,2.16470588 364.742246,2.16470588 L392.17861,2.16470588 C394.599465,2.16470588 396.482353,4.05882353 396.482353,6.49411765 C396.482353,8.92941176 394.599465,10.8235294 392.17861,10.8235294 L383.033155,10.8235294 L383.033155,40.8588235 C383.033155,43.5647059 380.881283,45.4588235 378.460428,45.4588235 C375.770588,45.4588235 373.887701,43.2941176 373.887701,40.8588235 L373.887701,10.8235294 L373.887701,10.8235294 Z"></path>
                        <path d="M410.738503,6.76470588 C410.738503,4.05882353 412.890374,2.16470588 415.31123,2.16470588 L430.105348,2.16470588 C435.485027,2.16470588 439.78877,3.78823529 442.47861,6.49411765 C444.899465,8.92941176 446.244385,12.1764706 446.244385,16.2352941 L446.244385,16.2352941 C446.244385,23 443.016578,27.0588235 437.636898,29.2235294 L444.092513,37.3411765 C444.899465,38.4235294 445.706417,39.5058824 445.706417,40.8588235 C445.706417,43.5647059 443.554545,45.1882353 441.13369,45.1882353 C438.981818,45.1882353 437.636898,44.1058824 436.560963,42.7529412 L427.415508,31.1176471 L419.883957,31.1176471 L419.883957,40.5882353 C419.883957,43.2941176 417.732086,45.1882353 415.31123,45.1882353 C412.62139,45.1882353 410.738503,43.0235294 410.738503,40.5882353 L410.738503,6.76470588 L410.738503,6.76470588 Z M429.56738,23 C434.140107,23 436.829947,20.5647059 436.829947,17.0470588 L436.829947,17.0470588 C436.829947,12.9882353 434.140107,10.8235294 429.56738,10.8235294 L420.152941,10.8235294 L420.152941,23.2705882 L429.56738,23.2705882 L429.56738,23 Z"></path>
                        <path d="M459.693583,38.9647059 L474.487701,5.14117647 C475.563636,2.70588235 477.446524,1.35294118 479.86738,1.35294118 L480.405348,1.35294118 C483.095187,1.35294118 484.709091,2.70588235 485.785027,5.14117647 L500.579144,38.9647059 C500.848128,39.5058824 501.117112,40.3176471 501.117112,40.8588235 C501.117112,43.2941176 499.234225,45.4588235 496.544385,45.4588235 C494.392513,45.4588235 492.77861,44.1058824 491.971658,42.2117647 L489.012834,35.4470588 L470.183957,35.4470588 L467.225134,42.4823529 C466.418182,44.3764706 464.804278,45.4588235 462.92139,45.4588235 C460.500535,45.4588235 458.617647,43.5647059 458.617647,41.1294118 C459.155615,40.3176471 459.424599,39.7764706 459.693583,38.9647059 L459.693583,38.9647059 Z M486.322995,27.0588235 L480.405348,12.9882353 L474.487701,27.0588235 L486.322995,27.0588235 L486.322995,27.0588235 Z"></path>
                    </g>
                    <g>
                        <g id="Shape_2_copy_2" transform="translate(17.901639, 17.901639)" fill="#67C7C1">
                            <path d="M68.5377049,14.5770492 C68.5377049,14.4065574 68.5377049,14.2360656 68.452459,14.0655738 L68.452459,13.895082 C68.452459,13.8098361 68.3672131,13.6393443 68.3672131,13.5540984 C68.3672131,13.4688525 68.3672131,13.4688525 68.2819672,13.3836066 C68.1967213,13.2983607 68.1967213,13.1278689 68.1114754,13.042623 C68.1114754,13.042623 68.1114754,12.957377 68.0262295,12.957377 C67.9409836,12.7868852 67.8557377,12.7016393 67.6852459,12.6163934 L67.6,12.5311475 C67.5147541,12.4459016 67.4295082,12.3606557 67.3442623,12.2754098 C67.2590164,12.2754098 67.2590164,12.1901639 67.1737705,12.1901639 C67.0885246,12.104918 67.0032787,12.104918 66.9180328,12.0196721 C66.8327869,12.0196721 66.8327869,11.9344262 66.747541,11.9344262 L66.6622951,11.9344262 L35.4622951,0.596721311 C34.8655738,0.340983607 34.1836066,0.340983607 33.5016393,0.596721311 L2.30163934,11.9344262 L2.21639344,11.9344262 C2.13114754,11.9344262 2.13114754,12.0196721 2.04590164,12.0196721 C1.96065574,12.104918 1.87540984,12.104918 1.79016393,12.1901639 C1.70491803,12.1901639 1.70491803,12.2754098 1.61967213,12.2754098 C1.53442623,12.3606557 1.44918033,12.4459016 1.36393443,12.5311475 L1.27868852,12.6163934 C1.19344262,12.7016393 1.02295082,12.8721311 0.937704918,12.957377 C0.937704918,12.957377 0.937704918,13.042623 0.852459016,13.042623 C0.767213115,13.1278689 0.681967213,13.2983607 0.681967213,13.3836066 C0.681967213,13.4688525 0.596721311,13.4688525 0.596721311,13.5540984 C0.596721311,13.6393443 0.51147541,13.8098361 0.51147541,13.895082 L0.51147541,14.0655738 C0.51147541,14.2360656 0.426229508,14.4065574 0.426229508,14.5770492 L0.426229508,54.1311475 L0.426229508,54.2163934 L0.426229508,54.557377 L0.426229508,54.8131148 C0.426229508,54.8983607 0.51147541,54.9836066 0.51147541,55.0688525 C0.51147541,55.1540984 0.596721311,55.2393443 0.596721311,55.3245902 C0.596721311,55.4098361 0.681967213,55.495082 0.681967213,55.5803279 C0.767213115,55.6655738 0.767213115,55.7508197 0.852459016,55.8360656 C0.937704918,55.9213115 0.937704918,56.0065574 1.02295082,56.0065574 C1.10819672,56.0918033 1.10819672,56.1770492 1.19344262,56.1770492 C1.27868852,56.2622951 1.36393443,56.2622951 1.36393443,56.347541 C1.44918033,56.4327869 1.53442623,56.4327869 1.61967213,56.5180328 C1.70491803,56.5180328 1.79016393,56.6032787 1.79016393,56.6032787 C1.87540984,56.6885246 1.96065574,56.6885246 2.13114754,56.7737705 L2.21639344,56.7737705 L33.4163934,68.1114754 C33.5016393,68.1114754 33.5868852,68.1114754 33.5868852,68.1967213 C33.6721311,68.1967213 33.757377,68.2819672 33.842623,68.2819672 C34.0131148,68.2819672 34.1836066,68.3672131 34.3540984,68.3672131 C34.5245902,68.3672131 34.695082,68.3672131 34.8655738,68.2819672 C34.9508197,68.2819672 35.0360656,68.2819672 35.1213115,68.1967213 C35.2065574,68.1967213 35.2918033,68.1967213 35.3770492,68.1114754 L66.5770492,56.7737705 L66.6622951,56.7737705 C66.747541,56.7737705 66.8327869,56.6885246 67.0032787,56.6032787 C67.0885246,56.6032787 67.1737705,56.5180328 67.1737705,56.5180328 C67.2590164,56.4327869 67.3442623,56.4327869 67.4295082,56.347541 C67.5147541,56.2622951 67.6,56.2622951 67.6,56.1770492 C67.6852459,56.0918033 67.6852459,56.0065574 67.7704918,56.0065574 C67.8557377,55.9213115 67.8557377,55.8360656 67.9409836,55.8360656 C68.0262295,55.7508197 68.0262295,55.6655738 68.1114754,55.5803279 C68.1114754,55.495082 68.1967213,55.4098361 68.1967213,55.3245902 C68.1967213,55.2393443 68.2819672,55.1540984 68.2819672,55.0688525 C68.2819672,54.9836066 68.3672131,54.8983607 68.3672131,54.8131148 L68.3672131,54.557377 L68.3672131,54.2163934 L68.3672131,54.1311475 L68.3672131,14.5770492 L68.5377049,14.5770492 Z M6.05245902,18.6688525 L31.6262295,27.8754098 L31.6262295,61.4622951 L6.05245902,52.2557377 L6.05245902,18.6688525 L6.05245902,18.6688525 Z M37.3377049,27.8754098 L62.9114754,18.6688525 L62.9114754,52.2557377 L37.3377049,61.4622951 L37.3377049,27.8754098 L37.3377049,27.8754098 Z M34.4393443,6.30819672 L57.3704918,14.5770492 L34.4393443,22.8459016 L11.5081967,14.5770492 L34.4393443,6.30819672 L34.4393443,6.30819672 Z" id="Shape"></path>
                        </g>
                        <g id="Shape_2_copy_3" fill="#2D313A">
                            <path d="M103.829508,21.9934426 C103.829508,21.7377049 103.829508,21.4819672 103.744262,21.2262295 C103.744262,21.1409836 103.744262,21.0557377 103.659016,20.9704918 C103.659016,20.8 103.57377,20.6295082 103.488525,20.4590164 C103.488525,20.3737705 103.403279,20.2885246 103.403279,20.2032787 C103.318033,20.0327869 103.232787,19.8622951 103.147541,19.6918033 C103.147541,19.6065574 103.062295,19.6065574 103.062295,19.5213115 C102.891803,19.3508197 102.806557,19.095082 102.55082,18.9245902 L102.380328,18.7540984 C102.209836,18.6688525 102.12459,18.4983607 101.954098,18.4131148 C101.868852,18.3278689 101.783607,18.3278689 101.698361,18.242623 C101.527869,18.157377 101.442623,18.0721311 101.272131,17.9868852 C101.186885,17.9016393 101.101639,17.9016393 101.016393,17.9016393 C101.016393,17.9016393 100.931148,17.9016393 100.931148,17.8163934 L53.8754098,0.937704918 C52.9377049,0.596721311 51.9147541,0.596721311 50.9770492,0.937704918 L3.75081967,17.9868852 C3.75081967,17.9868852 3.66557377,17.9868852 3.66557377,18.0721311 C3.58032787,18.0721311 3.49508197,18.157377 3.40983607,18.157377 C3.23934426,18.242623 3.15409836,18.3278689 2.98360656,18.4131148 C2.89836066,18.4983607 2.81311475,18.4983607 2.72786885,18.5836066 C2.55737705,18.6688525 2.47213115,18.8393443 2.30163934,18.9245902 C2.21639344,19.0098361 2.21639344,19.0098361 2.13114754,19.095082 C1.96065574,19.2655738 1.79016393,19.4360656 1.61967213,19.6918033 C1.61967213,19.7770492 1.53442623,19.7770492 1.53442623,19.8622951 C1.44918033,20.0327869 1.36393443,20.2032787 1.27868852,20.3737705 C1.27868852,20.4590164 1.19344262,20.5442623 1.19344262,20.6295082 C1.10819672,20.8 1.10819672,20.9704918 1.02295082,21.1409836 C1.02295082,21.2262295 1.02295082,21.3114754 0.937704918,21.3967213 C0.852459016,21.652459 0.852459016,21.9081967 0.852459016,22.1639344 L0.852459016,81.8360656 L0.852459016,81.9213115 C0.852459016,82.0918033 0.852459016,82.2622951 0.937704918,82.347541 C0.937704918,82.5180328 0.937704918,82.6032787 1.02295082,82.6885246 C1.02295082,82.8590164 1.10819672,82.9442623 1.10819672,83.1147541 C1.19344262,83.2852459 1.19344262,83.3704918 1.27868852,83.5409836 C1.36393443,83.6262295 1.36393443,83.7967213 1.44918033,83.8819672 C1.53442623,83.9672131 1.61967213,84.1377049 1.70491803,84.2229508 C1.79016393,84.3081967 1.87540984,84.3934426 1.96065574,84.5639344 C2.04590164,84.6491803 2.13114754,84.8196721 2.21639344,84.904918 C2.30163934,84.9901639 2.38688525,85.0754098 2.55737705,85.1606557 C2.64262295,85.2459016 2.81311475,85.3311475 2.89836066,85.4163934 C2.98360656,85.5016393 3.06885246,85.5016393 3.15409836,85.5868852 C3.32459016,85.6721311 3.49508197,85.757377 3.66557377,85.842623 L3.75081967,85.842623 L50.8918033,102.977049 C50.9770492,102.977049 51.147541,103.062295 51.2327869,103.062295 C51.3180328,103.062295 51.4885246,103.147541 51.5737705,103.147541 C51.8295082,103.232787 52.0852459,103.232787 52.3409836,103.232787 C52.5967213,103.232787 52.852459,103.232787 53.1081967,103.147541 C53.1934426,103.147541 53.3639344,103.062295 53.4491803,103.062295 C53.5344262,103.062295 53.704918,102.977049 53.7901639,102.977049 L100.931148,85.842623 L101.016393,85.842623 C101.186885,85.757377 101.357377,85.6721311 101.527869,85.5868852 C101.613115,85.5016393 101.698361,85.5016393 101.783607,85.4163934 C101.868852,85.3311475 102.039344,85.2459016 102.12459,85.1606557 C102.209836,85.0754098 102.295082,84.9901639 102.465574,84.904918 C102.55082,84.8196721 102.636066,84.7344262 102.721311,84.5639344 C102.806557,84.4786885 102.891803,84.3934426 102.977049,84.2229508 C103.062295,84.1377049 103.147541,83.9672131 103.232787,83.8819672 C103.318033,83.7967213 103.403279,83.6262295 103.403279,83.5409836 C103.488525,83.4557377 103.488525,83.2852459 103.57377,83.1147541 C103.659016,82.9442623 103.659016,82.8590164 103.659016,82.6885246 C103.659016,82.6032787 103.659016,82.4327869 103.744262,82.347541 C103.744262,82.1770492 103.829508,82.0065574 103.829508,81.8360656 L103.829508,81.7508197 L103.829508,21.9934426 L103.829508,21.9934426 Z M9.46229508,28.1311475 L48.0786885,42.1114754 L48.0786885,92.8327869 L9.46229508,78.852459 L9.46229508,28.1311475 L9.46229508,28.1311475 Z M56.6885246,42.1114754 L95.2196721,28.1311475 L95.2196721,78.852459 L56.6032787,92.8327869 L56.6032787,42.1114754 L56.6885246,42.1114754 Z M52.3409836,9.46229508 L86.9508197,21.9934426 L52.3409836,34.5245902 L17.7311475,21.9934426 L52.3409836,9.46229508 L52.3409836,9.46229508 Z" id="Shape"></path>
                        </g>
                    </g>
                </g>
            </g>
        </g>
    </g>
</svg>