<?xml version="1.0" encoding="UTF-8" standalone="no"?>
<svg width="636px" height="104px" viewBox="0 0 636 104" version="1.1" xmlns="http://www.w3.org/2000/svg" xmlns:xlink="http://www.w3.org/1999/xlink" xmlns:sketch="http://www.bohemiancoding.com/sketch/ns">
    <!-- Generator: Sketch 3.3.2 (12043) - http://www.bohemiancoding.com/sketch -->
    <title>logo</title>
    <desc>Created with Sketch.</desc>
    <defs></defs>
    <g id="Welcome" stroke="none" stroke-width="1" fill="none" fill-rule="evenodd" sketch:type="MSPage">
        <g id="Desktop-HD" sketch:type="MSArtboardGroup" transform="translate(-362.000000, -429.000000)">
            <g id="logo" sketch:type="MSLayerGroup" transform="translate(362.000000, 429.000000)">
                <g id="Group" sketch:type="MSShapeGroup">
                    <g transform="translate(135.000000, 30.000000)" id="Shape" fill="#FFFFFF">
                        <path d="M0.0759358289,22.8117647 L0.0759358289,22.8117647 C0.0759358289,10.6352941 9.22139037,0.352941176 21.5946524,0.352941176 C28.5882353,0.352941176 32.8919786,2.51764706 36.926738,6.03529412 C37.4647059,6.57647059 38.0026738,7.11764706 38.0026738,7.92941176 C38.0026738,9.28235294 36.926738,10.3647059 35.5818182,10.3647059 C35.0438503,10.3647059 34.2368984,10.0941176 33.9679144,9.82352941 C30.740107,6.84705882 26.9743316,4.95294118 21.5946524,4.95294118 C12.1802139,4.95294118 5.18663102,12.8 5.18663102,22.5411765 L5.18663102,22.5411765 C5.18663102,32.5529412 12.4491979,40.4 21.5946524,40.4 C26.9743316,40.4 30.740107,38.5058824 34.2368984,35.2588235 C34.5058824,34.9882353 35.0438503,34.7176471 35.8508021,34.7176471 C37.1957219,34.7176471 38.2716578,35.8 38.2716578,37.1529412 C38.2716578,37.9647059 38.0026738,38.5058824 37.4647059,38.7764706 C33.1609626,42.5647059 28.5882353,45 21.5946524,45 C9.22139037,44.7294118 0.0759358289,34.9882353 0.0759358289,22.8117647 L0.0759358289,22.8117647 Z"></path>
                        <path d="M51.7208556,40.9411765 L68.9358289,2.78823529 C69.4737968,1.43529412 70.5497326,0.623529412 71.8946524,0.623529412 L72.1636364,0.623529412 C73.5085561,0.623529412 74.584492,1.43529412 75.1224599,2.78823529 L92.3374332,40.9411765 C92.6064171,41.4823529 92.6064171,41.7529412 92.6064171,42.2941176 C92.6064171,43.6470588 91.5304813,44.7294118 90.1855615,44.7294118 C89.1096257,44.7294118 88.3026738,43.9176471 87.7647059,42.8352941 L83.1919786,32.8235294 L59.7903743,32.8235294 L55.2176471,42.8352941 C54.6796791,43.9176471 53.8727273,44.4588235 52.7967914,44.4588235 C51.4518717,44.4588235 50.6449198,43.3764706 50.6449198,42.2941176 C51.4518717,41.7529412 51.4518717,41.4823529 51.7208556,40.9411765 L51.7208556,40.9411765 Z M82.1160428,28.2235294 L72.1636364,6.30588235 L62.2112299,28.2235294 L82.1160428,28.2235294 L82.1160428,28.2235294 Z"></path>
                        <path d="M107.400535,39.0470588 C106.862567,38.7764706 106.593583,37.9647059 106.593583,37.1529412 C106.593583,35.8 107.669519,34.7176471 109.014439,34.7176471 C109.552406,34.7176471 110.090374,34.9882353 110.359358,35.2588235 C114.394118,38.7764706 118.428877,40.4 123.808556,40.4 C129.457219,40.4 133.222995,37.4235294 133.222995,33.0941176 L133.222995,33.0941176 C133.222995,29.0352941 131.071123,26.8705882 122.194652,24.9764706 C112.242246,22.8117647 107.938503,19.5647059 107.938503,12.5294118 L107.938503,12.5294118 C107.938503,5.76470588 113.85615,0.894117647 121.925668,0.894117647 C127.574332,0.894117647 131.609091,2.24705882 135.64385,5.22352941 C136.181818,5.49411765 136.719786,6.30588235 136.719786,7.11764706 C136.719786,8.47058824 135.64385,9.55294118 134.29893,9.55294118 C133.760963,9.55294118 133.222995,9.55294118 132.954011,9.01176471 C129.457219,6.30588235 125.960428,5.22352941 121.925668,5.22352941 C116.277005,5.22352941 112.780214,8.2 112.780214,12.2588235 L112.780214,12.2588235 C112.780214,16.3176471 114.932086,18.4823529 124.346524,20.6470588 C133.760963,22.8117647 138.33369,26.3294118 138.33369,32.8235294 L138.33369,32.8235294 C138.33369,40.1294118 132.147059,45 123.808556,45 C117.352941,44.7294118 112.242246,42.8352941 107.400535,39.0470588 L107.400535,39.0470588 Z"></path>
                        <path d="M151.782888,40.9411765 L168.997861,2.78823529 C169.535829,1.43529412 170.611765,0.623529412 171.956684,0.623529412 L172.225668,0.623529412 C173.570588,0.623529412 174.646524,1.43529412 175.184492,2.78823529 L192.399465,40.9411765 C192.668449,41.4823529 192.668449,41.7529412 192.668449,42.2941176 C192.668449,43.6470588 191.592513,44.7294118 190.247594,44.7294118 C189.171658,44.7294118 188.364706,43.9176471 187.826738,42.8352941 L183.254011,32.8235294 L159.852406,32.8235294 L155.279679,42.8352941 C154.741711,43.9176471 153.934759,44.4588235 152.858824,44.4588235 C151.513904,44.4588235 150.706952,43.3764706 150.706952,42.2941176 C151.513904,41.7529412 151.782888,41.4823529 151.782888,40.9411765 L151.782888,40.9411765 Z M182.178075,28.2235294 L172.225668,6.30588235 L162.273262,28.2235294 L182.178075,28.2235294 L182.178075,28.2235294 Z"></path>
                        <path d="M208.807487,5.49411765 C208.807487,2.78823529 210.959358,0.894117647 213.380214,0.894117647 L214.45615,0.894117647 C216.339037,0.894117647 217.952941,1.97647059 218.759893,3.32941176 L230.057219,22 L241.354545,3.32941176 C242.430481,1.70588235 243.775401,0.894117647 245.658289,0.894117647 L246.734225,0.894117647 C249.424064,0.894117647 251.306952,3.05882353 251.306952,5.49411765 L251.306952,39.5882353 C251.306952,42.2941176 249.15508,44.1882353 246.734225,44.1882353 C244.044385,44.1882353 242.161497,42.0235294 242.161497,39.5882353 L242.161497,18.2117647 L233.822995,30.9294118 C232.747059,32.2823529 231.671123,33.3647059 229.788235,33.3647059 C228.174332,33.3647059 226.829412,32.5529412 225.753476,30.9294118 L217.683957,18.2117647 L217.683957,39.5882353 C217.683957,42.2941176 215.532086,44.1882353 213.11123,44.1882353 C210.690374,44.1882353 208.538503,42.2941176 208.538503,39.5882353 L208.538503,5.49411765 L208.807487,5.49411765 Z"></path>
                        <path d="M269.059893,39.3176471 L269.059893,5.76470588 C269.059893,3.05882353 271.211765,1.16470588 273.63262,1.16470588 L297.303209,1.16470588 C299.724064,1.16470588 301.606952,3.05882353 301.606952,5.49411765 C301.606952,7.92941176 299.724064,9.55294118 297.303209,9.55294118 L278.205348,9.55294118 L278.205348,18.2117647 L294.613369,18.2117647 C297.034225,18.2117647 298.917112,20.1058824 298.917112,22.5411765 C298.917112,24.9764706 297.034225,26.6 294.613369,26.6 L278.205348,26.6 L278.205348,35.5294118 L297.572193,35.5294118 C299.993048,35.5294118 301.875936,37.4235294 301.875936,39.8588235 C301.875936,42.2941176 299.993048,43.9176471 297.572193,43.9176471 L273.63262,43.9176471 C271.211765,44.1882353 269.059893,42.0235294 269.059893,39.3176471 L269.059893,39.3176471 Z"></path>
                        <path d="M316.40107,39.5882353 C315.325134,38.7764706 314.518182,37.4235294 314.518182,36.0705882 C314.518182,33.6352941 316.40107,31.7411765 318.821925,31.7411765 C320.166845,31.7411765 320.973797,32.2823529 321.511765,32.5529412 C324.739572,34.9882353 328.236364,36.3411765 332.540107,36.3411765 C336.305882,36.3411765 338.726738,34.7176471 338.726738,32.2823529 L338.726738,32.2823529 C338.726738,29.8470588 337.381818,28.7647059 330.119251,26.8705882 C321.511765,24.7058824 315.863102,22.2705882 315.863102,13.6117647 L315.863102,13.6117647 C315.863102,5.76470588 322.049733,0.623529412 330.926203,0.623529412 C336.036898,0.623529412 340.609626,1.97647059 344.375401,4.41176471 C345.451337,4.95294118 346.527273,6.30588235 346.527273,8.2 C346.527273,10.6352941 344.644385,12.5294118 342.223529,12.5294118 C341.416578,12.5294118 340.609626,12.2588235 339.802674,11.9882353 C336.574866,10.0941176 333.885027,9.01176471 330.926203,9.01176471 C327.429412,9.01176471 325.546524,10.6352941 325.546524,12.8 L325.546524,12.8 C325.546524,15.5058824 327.429412,16.5882353 334.691979,18.4823529 C343.299465,20.6470588 348.141176,23.8941176 348.141176,31.4705882 L348.141176,31.4705882 C348.141176,40.1294118 341.685561,44.7294118 332.540107,44.7294118 C326.891444,44.7294118 321.242781,43.1058824 316.40107,39.5882353 L316.40107,39.5882353 Z"></path>
                        <path d="M372.887701,9.82352941 L363.742246,9.82352941 C361.32139,9.82352941 359.438503,7.92941176 359.438503,5.49411765 C359.438503,3.05882353 361.32139,1.16470588 363.742246,1.16470588 L391.17861,1.16470588 C393.599465,1.16470588 395.482353,3.05882353 395.482353,5.49411765 C395.482353,7.92941176 393.599465,9.82352941 391.17861,9.82352941 L382.033155,9.82352941 L382.033155,39.8588235 C382.033155,42.5647059 379.881283,44.4588235 377.460428,44.4588235 C374.770588,44.4588235 372.887701,42.2941176 372.887701,39.8588235 L372.887701,9.82352941 L372.887701,9.82352941 Z"></path>
                        <path d="M409.738503,5.76470588 C409.738503,3.05882353 411.890374,1.16470588 414.31123,1.16470588 L429.105348,1.16470588 C434.485027,1.16470588 438.78877,2.78823529 441.47861,5.49411765 C443.899465,7.92941176 445.244385,11.1764706 445.244385,15.2352941 L445.244385,15.2352941 C445.244385,22 442.016578,26.0588235 436.636898,28.2235294 L443.092513,36.3411765 C443.899465,37.4235294 444.706417,38.5058824 444.706417,39.8588235 C444.706417,42.5647059 442.554545,44.1882353 440.13369,44.1882353 C437.981818,44.1882353 436.636898,43.1058824 435.560963,41.7529412 L426.415508,30.1176471 L418.883957,30.1176471 L418.883957,39.5882353 C418.883957,42.2941176 416.732086,44.1882353 414.31123,44.1882353 C411.62139,44.1882353 409.738503,42.0235294 409.738503,39.5882353 L409.738503,5.76470588 L409.738503,5.76470588 Z M428.56738,22 C433.140107,22 435.829947,19.5647059 435.829947,16.0470588 L435.829947,16.0470588 C435.829947,11.9882353 433.140107,9.82352941 428.56738,9.82352941 L419.152941,9.82352941 L419.152941,22.2705882 L428.56738,22.2705882 L428.56738,22 Z"></path>
                        <path d="M458.693583,37.9647059 L473.487701,4.14117647 C474.563636,1.70588235 476.446524,0.352941176 478.86738,0.352941176 L479.405348,0.352941176 C482.095187,0.352941176 483.709091,1.70588235 484.785027,4.14117647 L499.579144,37.9647059 C499.848128,38.5058824 500.117112,39.3176471 500.117112,39.8588235 C500.117112,42.2941176 498.234225,44.4588235 495.544385,44.4588235 C493.392513,44.4588235 491.77861,43.1058824 490.971658,41.2117647 L488.012834,34.4470588 L469.183957,34.4470588 L466.225134,41.4823529 C465.418182,43.3764706 463.804278,44.4588235 461.92139,44.4588235 C459.500535,44.4588235 457.617647,42.5647059 457.617647,40.1294118 C458.155615,39.3176471 458.424599,38.7764706 458.693583,37.9647059 L458.693583,37.9647059 Z M485.322995,26.0588235 L479.405348,11.9882353 L473.487701,26.0588235 L485.322995,26.0588235 L485.322995,26.0588235 Z"></path>
                    </g>
                    <g>
                        <g id="Shape_2_copy_2" transform="translate(17.901639, 17.901639)" fill="#67C7C1">
                            <path d="M68.5377049,14.5770492 C68.5377049,14.4065574 68.5377049,14.2360656 68.452459,14.0655738 L68.452459,13.895082 C68.452459,13.8098361 68.3672131,13.6393443 68.3672131,13.5540984 C68.3672131,13.4688525 68.3672131,13.4688525 68.2819672,13.3836066 C68.1967213,13.2983607 68.1967213,13.1278689 68.1114754,13.042623 C68.1114754,13.042623 68.1114754,12.957377 68.0262295,12.957377 C67.9409836,12.7868852 67.8557377,12.7016393 67.6852459,12.6163934 L67.6,12.5311475 C67.5147541,12.4459016 67.4295082,12.3606557 67.3442623,12.2754098 C67.2590164,12.2754098 67.2590164,12.1901639 67.1737705,12.1901639 C67.0885246,12.104918 67.0032787,12.104918 66.9180328,12.0196721 C66.8327869,12.0196721 66.8327869,11.9344262 66.747541,11.9344262 L66.6622951,11.9344262 L35.4622951,0.596721311 C34.8655738,0.340983607 34.1836066,0.340983607 33.5016393,0.596721311 L2.30163934,11.9344262 L2.21639344,11.9344262 C2.13114754,11.9344262 2.13114754,12.0196721 2.04590164,12.0196721 C1.96065574,12.104918 1.87540984,12.104918 1.79016393,12.1901639 C1.70491803,12.1901639 1.70491803,12.2754098 1.61967213,12.2754098 C1.53442623,12.3606557 1.44918033,12.4459016 1.36393443,12.5311475 L1.27868852,12.6163934 C1.19344262,12.7016393 1.02295082,12.8721311 0.937704918,12.957377 C0.937704918,12.957377 0.937704918,13.042623 0.852459016,13.042623 C0.767213115,13.1278689 0.681967213,13.2983607 0.681967213,13.3836066 C0.681967213,13.4688525 0.596721311,13.4688525 0.596721311,13.5540984 C0.596721311,13.6393443 0.51147541,13.8098361 0.51147541,13.895082 L0.51147541,14.0655738 C0.51147541,14.2360656 0.426229508,14.4065574 0.426229508,14.5770492 L0.426229508,54.1311475 L0.426229508,54.2163934 L0.426229508,54.557377 L0.426229508,54.8131148 C0.426229508,54.8983607 0.51147541,54.9836066 0.51147541,55.0688525 C0.51147541,55.1540984 0.596721311,55.2393443 0.596721311,55.3245902 C0.596721311,55.4098361 0.681967213,55.495082 0.681967213,55.5803279 C0.767213115,55.6655738 0.767213115,55.7508197 0.852459016,55.8360656 C0.937704918,55.9213115 0.937704918,56.0065574 1.02295082,56.0065574 C1.10819672,56.0918033 1.10819672,56.1770492 1.19344262,56.1770492 C1.27868852,56.2622951 1.36393443,56.2622951 1.36393443,56.347541 C1.44918033,56.4327869 1.53442623,56.4327869 1.61967213,56.5180328 C1.70491803,56.5180328 1.79016393,56.6032787 1.79016393,56.6032787 C1.87540984,56.6885246 1.96065574,56.6885246 2.13114754,56.7737705 L2.21639344,56.7737705 L33.4163934,68.1114754 C33.5016393,68.1114754 33.5868852,68.1114754 33.5868852,68.1967213 C33.6721311,68.1967213 33.757377,68.2819672 33.842623,68.2819672 C34.0131148,68.2819672 34.1836066,68.3672131 34.3540984,68.3672131 C34.5245902,68.3672131 34.695082,68.3672131 34.8655738,68.2819672 C34.9508197,68.2819672 35.0360656,68.2819672 35.1213115,68.1967213 C35.2065574,68.1967213 35.2918033,68.1967213 35.3770492,68.1114754 L66.5770492,56.7737705 L66.6622951,56.7737705 C66.747541,56.7737705 66.8327869,56.6885246 67.0032787,56.6032787 C67.0885246,56.6032787 67.1737705,56.5180328 67.1737705,56.5180328 C67.2590164,56.4327869 67.3442623,56.4327869 67.4295082,56.347541 C67.5147541,56.2622951 67.6,56.2622951 67.6,56.1770492 C67.6852459,56.0918033 67.6852459,56.0065574 67.7704918,56.0065574 C67.8557377,55.9213115 67.8557377,55.8360656 67.9409836,55.8360656 C68.0262295,55.7508197 68.0262295,55.6655738 68.1114754,55.5803279 C68.1114754,55.495082 68.1967213,55.4098361 68.1967213,55.3245902 C68.1967213,55.2393443 68.2819672,55.1540984 68.2819672,55.0688525 C68.2819672,54.9836066 68.3672131,54.8983607 68.3672131,54.8131148 L68.3672131,54.557377 L68.3672131,54.2163934 L68.3672131,54.1311475 L68.3672131,14.5770492 L68.5377049,14.5770492 Z M6.05245902,18.6688525 L31.6262295,27.8754098 L31.6262295,61.4622951 L6.05245902,52.2557377 L6.05245902,18.6688525 L6.05245902,18.6688525 Z M37.3377049,27.8754098 L62.9114754,18.6688525 L62.9114754,52.2557377 L37.3377049,61.4622951 L37.3377049,27.8754098 L37.3377049,27.8754098 Z M34.4393443,6.30819672 L57.3704918,14.5770492 L34.4393443,22.8459016 L11.5081967,14.5770492 L34.4393443,6.30819672 L34.4393443,6.30819672 Z" id="Shape"></path>
                        </g>
                        <g id="Shape_2_copy_3" fill="#FFFFFF">
                            <path d="M103.829508,21.9934426 C103.829508,21.7377049 103.829508,21.4819672 103.744262,21.2262295 C103.744262,21.1409836 103.744262,21.0557377 103.659016,20.9704918 C103.659016,20.8 103.57377,20.6295082 103.488525,20.4590164 C103.488525,20.3737705 103.403279,20.2885246 103.403279,20.2032787 C103.318033,20.0327869 103.232787,19.8622951 103.147541,19.6918033 C103.147541,19.6065574 103.062295,19.6065574 103.062295,19.5213115 C102.891803,19.3508197 102.806557,19.095082 102.55082,18.9245902 L102.380328,18.7540984 C102.209836,18.6688525 102.12459,18.4983607 101.954098,18.4131148 C101.868852,18.3278689 101.783607,18.3278689 101.698361,18.242623 C101.527869,18.157377 101.442623,18.0721311 101.272131,17.9868852 C101.186885,17.9016393 101.101639,17.9016393 101.016393,17.9016393 C101.016393,17.9016393 100.931148,17.9016393 100.931148,17.8163934 L53.8754098,0.937704918 C52.9377049,0.596721311 51.9147541,0.596721311 50.9770492,0.937704918 L3.75081967,17.9868852 C3.75081967,17.9868852 3.66557377,17.9868852 3.66557377,18.0721311 C3.58032787,18.0721311 3.49508197,18.157377 3.40983607,18.157377 C3.23934426,18.242623 3.15409836,18.3278689 2.98360656,18.4131148 C2.89836066,18.4983607 2.81311475,18.4983607 2.72786885,18.5836066 C2.55737705,18.6688525 2.47213115,18.8393443 2.30163934,18.9245902 C2.21639344,19.0098361 2.21639344,19.0098361 2.13114754,19.095082 C1.96065574,19.2655738 1.79016393,19.4360656 1.61967213,19.6918033 C1.61967213,19.7770492 1.53442623,19.7770492 1.53442623,19.8622951 C1.44918033,20.0327869 1.36393443,20.2032787 1.27868852,20.3737705 C1.27868852,20.4590164 1.19344262,20.5442623 1.19344262,20.6295082 C1.10819672,20.8 1.10819672,20.9704918 1.02295082,21.1409836 C1.02295082,21.2262295 1.02295082,21.3114754 0.937704918,21.3967213 C0.852459016,21.652459 0.852459016,21.9081967 0.852459016,22.1639344 L0.852459016,81.8360656 L0.852459016,81.9213115 C0.852459016,82.0918033 0.852459016,82.2622951 0.937704918,82.347541 C0.937704918,82.5180328 0.937704918,82.6032787 1.02295082,82.6885246 C1.02295082,82.8590164 1.10819672,82.9442623 1.10819672,83.1147541 C1.19344262,83.2852459 1.19344262,83.3704918 1.27868852,83.5409836 C1.36393443,83.6262295 1.36393443,83.7967213 1.44918033,83.8819672 C1.53442623,83.9672131 1.61967213,84.1377049 1.70491803,84.2229508 C1.79016393,84.3081967 1.87540984,84.3934426 1.96065574,84.5639344 C2.04590164,84.6491803 2.13114754,84.8196721 2.21639344,84.904918 C2.30163934,84.9901639 2.38688525,85.0754098 2.55737705,85.1606557 C2.64262295,85.2459016 2.81311475,85.3311475 2.89836066,85.4163934 C2.98360656,85.5016393 3.06885246,85.5016393 3.15409836,85.5868852 C3.32459016,85.6721311 3.49508197,85.757377 3.66557377,85.842623 L3.75081967,85.842623 L50.8918033,102.977049 C50.9770492,102.977049 51.147541,103.062295 51.2327869,103.062295 C51.3180328,103.062295 51.4885246,103.147541 51.5737705,103.147541 C51.8295082,103.232787 52.0852459,103.232787 52.3409836,103.232787 C52.5967213,103.232787 52.852459,103.232787 53.1081967,103.147541 C53.1934426,103.147541 53.3639344,103.062295 53.4491803,103.062295 C53.5344262,103.062295 53.704918,102.977049 53.7901639,102.977049 L100.931148,85.842623 L101.016393,85.842623 C101.186885,85.757377 101.357377,85.6721311 101.527869,85.5868852 C101.613115,85.5016393 101.698361,85.5016393 101.783607,85.4163934 C101.868852,85.3311475 102.039344,85.2459016 102.12459,85.1606557 C102.209836,85.0754098 102.295082,84.9901639 102.465574,84.904918 C102.55082,84.8196721 102.636066,84.7344262 102.721311,84.5639344 C102.806557,84.4786885 102.891803,84.3934426 102.977049,84.2229508 C103.062295,84.1377049 103.147541,83.9672131 103.232787,83.8819672 C103.318033,83.7967213 103.403279,83.6262295 103.403279,83.5409836 C103.488525,83.4557377 103.488525,83.2852459 103.57377,83.1147541 C103.659016,82.9442623 103.659016,82.8590164 103.659016,82.6885246 C103.659016,82.6032787 103.659016,82.4327869 103.744262,82.347541 C103.744262,82.1770492 103.829508,82.0065574 103.829508,81.8360656 L103.829508,81.7508197 L103.829508,21.9934426 L103.829508,21.9934426 Z M9.46229508,28.1311475 L48.0786885,42.1114754 L48.0786885,92.8327869 L9.46229508,78.852459 L9.46229508,28.1311475 L9.46229508,28.1311475 Z M56.6885246,42.1114754 L95.2196721,28.1311475 L95.2196721,78.852459 L56.6032787,92.8327869 L56.6032787,42.1114754 L56.6885246,42.1114754 Z M52.3409836,9.46229508 L86.9508197,21.9934426 L52.3409836,34.5245902 L17.7311475,21.9934426 L52.3409836,9.46229508 L52.3409836,9.46229508 Z" id="Shape"></path>
                        </g>
                    </g>
                </g>
            </g>
        </g>
    </g>
</svg>