<?xml version="1.0" encoding="UTF-8" standalone="no"?>
<svg width="16px" height="12px" viewBox="0 0 16 12" version="1.1" xmlns="http://www.w3.org/2000/svg" xmlns:xlink="http://www.w3.org/1999/xlink" xmlns:sketch="http://www.bohemiancoding.com/sketch/ns">
    <!-- Generator: Sketch 3.3.2 (12043) - http://www.bohemiancoding.com/sketch -->
    <title>bed</title>
    <desc>Created with Sketch.</desc>
    <defs></defs>
    <g id="Page-1" stroke="none" stroke-width="1" fill="none" fill-rule="evenodd" sketch:type="MSPage">
        <g id="bed" sketch:type="MSLayerGroup" transform="translate(0.707662, 0.594648)" fill="#2A3038">
            <circle id="Oval" sketch:type="MSShapeGroup" cx="3.125" cy="1.4375" r="1.375"></circle>
            <path d="M0,10.624375 C0,11 0.25,11.25 0.625,11.25 C1,11.25 1.25,11 1.25,10.624375 L1.25,7.5 L13.75,7.5 L13.750625,7.5 L13.750625,10.624375 C13.750625,10.999375 14.000625,11.249375 14.375625,11.249375 C14.72,11.25 15,11 15,10.624375 L15,2.5 C15,2.125 14.75,1.875 14.375,1.875 C14.029375,1.875 13.75,2.125 13.75,2.5 L13.75,3.125 L13.125625,3.125 L13.125625,2.8125 C13.124375,1.25 12.5,0 10.9375,0 L6.875,0 C6.105625,0.0625 5.125,0.1875 5,1.25 L5,3.125 L1.25,3.125 L1.25,1.875 C1.25,1.5 1,1.25 0.625,1.25 C0.25,1.25 0,1.5 0,1.875 L0,10.624375 L0,10.624375 Z M6.263125,1.375 C6.36875,1.3125 6.625,1.25 6.875,1.25 L10.3125,1.25 C11.17625,1.25 11.8725,1.11625 11.875,2.813125 L11.875,3.125 L6.25,3.125 L6.263125,1.35875 L6.263125,1.375 Z M13.75,6.25 L1.25,6.25 L1.25,4.375625 L13.75,4.375625 L13.75,6.25 L13.75,6.25 Z" id="Shape" sketch:type="MSShapeGroup"></path>
        </g>
    </g>
</svg>