<?xml version="1.0" encoding="UTF-8" standalone="no"?>
<svg width="25px" height="26px" viewBox="0 0 25 26" version="1.1" xmlns="http://www.w3.org/2000/svg" xmlns:xlink="http://www.w3.org/1999/xlink" xmlns:sketch="http://www.bohemiancoding.com/sketch/ns">
    <!-- Generator: Sketch 3.3.2 (12043) - http://www.bohemiancoding.com/sketch -->
    <title>map-icon</title>
    <desc>Created with Sketch.</desc>
    <defs></defs>
    <g id="Page-1" stroke="none" stroke-width="1" fill="none" fill-rule="evenodd" sketch:type="MSPage">
        <g id="map-icon" sketch:type="MSLayerGroup" fill="#2A3038">
            <g id="Page-1" sketch:type="MSShapeGroup">
                <path d="M17.1895301,7.25177055 C16.0018515,7.25177055 15.0383757,6.28864564 15.0383757,5.10026531 C15.0383757,3.9115341 16.0018515,2.94911093 17.1895301,2.94911093 C18.3779104,2.94911093 19.3413862,3.91188497 19.3413862,5.10026531 C19.3413862,6.28864564 18.3779104,7.25177055 17.1895301,7.25177055 L17.1895301,7.25177055 L17.1895301,7.25177055 Z M17.1895301,12.954733 C17.1895301,12.954733 21.6595524,7.37843288 21.6595524,4.90974551 C21.6595524,2.44105816 19.6585683,0.440074074 17.1895301,0.440074074 C14.7211935,0.440074074 12.7202095,2.44105816 12.7202095,4.90974551 C12.7202095,7.37878375 17.1895301,12.954733 17.1895301,12.954733 L17.1895301,12.954733 L17.1895301,12.954733 Z M6.78988635,23.7147154 L2.14302799,21.8000441 L2.14302799,8.49102634 L6.78988635,10.4046449 L6.78988635,23.7147154 L6.78988635,23.7147154 Z M24.2966551,23.437181 L24.2966551,6.60372257 L22.6149582,5.70831465 C22.4868924,6.18303523 22.2840924,6.69880704 22.0318203,7.23142037 L22.6672372,7.69561499 L22.6672372,21.0042819 L18.0203788,19.0910141 L18.0203788,13.0585892 C17.8537178,13.2747221 17.7305642,13.4298046 17.6695136,13.5059423 L17.1895301,14.1038165 L16.7105991,13.5059423 C16.653759,13.4343657 16.5414821,13.2940197 16.3913118,13.0996404 L16.3913118,19.7604648 L8.41860248,23.044212 L8.41860248,9.73484335 L12.6289845,8.28962973 C12.3637305,7.78052436 12.1328612,7.27878717 11.9588321,6.80336486 L6.78988635,8.64224923 L0.513259259,6.05847809 L0.513259259,22.8919365 L6.78988635,25.4771111 L18.0203788,20.8523573 L18.0203788,20.853059 L24.2966551,23.437181 L24.2966551,23.437181 Z" id="Shape"></path>
            </g>
        </g>
    </g>
</svg>