<?xml version="1.0" encoding="UTF-8" standalone="no"?>
<svg width="15px" height="15px" viewBox="0 0 15 15" version="1.1" xmlns="http://www.w3.org/2000/svg" xmlns:xlink="http://www.w3.org/1999/xlink" xmlns:sketch="http://www.bohemiancoding.com/sketch/ns">
    <!-- Generator: Sketch 3.3.2 (12043) - http://www.bohemiancoding.com/sketch -->
    <title>Shape</title>
    <desc>Created with Sketch.</desc>
    <defs></defs>
    <g id="Page-1" stroke="none" stroke-width="1" fill="none" fill-rule="evenodd" sketch:type="MSPage">
        <g id="park" sketch:type="MSLayerGroup" transform="translate(0.500000, 0.000000)" fill="#2A3038">
            <path d="M14.3748,0.531 C14.2698,0.147 13.8738,-0.0786 13.4898,0.0258 L6.8898,1.8264 C6.5058,1.9302 6.2802,2.3262 6.3846,2.7264 C6.4896,3.0864 6.8646,3.3264 7.2846,3.2316 L9.6,2.5794 L9.6,3.72 L9.5994,3.72 L7.8,3.72 C6.0798,3.72 4.8648,4.7952 4.4016,5.4546 L3.558,6.72 L3.0144,6.72 C2.6616,6.7026 1.5042,6.708 0.7038,7.4526 C0.243,7.86 0,8.46 0,9.1206 L0,10.92 L0,12.12 L1.2,12.12 L2.412,12.12 C2.4756,13.38 3.54,14.4 4.8,14.4 C6.0816,14.4 7.1238,13.3872 7.1874,12.1194 L9.6,12.1194 L9.6,14.4 L10.8,14.4 L10.8,2.2524 L13.8696,1.4148 C14.2536,1.32 14.46,0.9 14.4,0.531 L14.3748,0.531 Z M4.8,13.2 C4.1376,13.2 3.6,12.6624 3.6,11.9994 C3.6,11.3364 4.1376,10.7994 4.8,10.7994 C5.4624,10.7994 6,11.34 6,12 C6,12.66 5.463,13.2 4.8,13.2006 L4.8,13.2 Z M6.9318,10.92 C6.5346,10.14 5.76,9.6 4.8,9.6 C3.8664,9.6 3.0648,10.1406 2.6682,10.9206 L1.2,10.9206 L1.2,9.1212 C1.2,8.7618 1.3308,8.5098 1.5222,8.3322 C2.0388,7.86 3,7.92 3,7.92 L4.2,7.92 L5.4,6.12 C5.4,6.12 6.2442,4.9206 7.8,4.9206 L9.5994,4.9206 L9.6,4.9206 L9.6,10.9206 L6.9318,10.9206 L6.9318,10.92 Z" id="Shape" sketch:type="MSShapeGroup"></path>
        </g>
    </g>
</svg>