<?xml version="1.0" encoding="UTF-8" standalone="no"?>
<svg width="15px" height="15px" viewBox="0 0 15 15" version="1.1" xmlns="http://www.w3.org/2000/svg" xmlns:xlink="http://www.w3.org/1999/xlink" xmlns:sketch="http://www.bohemiancoding.com/sketch/ns">
    <!-- Generator: Sketch 3.3.2 (12043) - http://www.bohemiancoding.com/sketch -->
    <title>square</title>
    <desc>Created with Sketch.</desc>
    <defs></defs>
    <g id="Page-1" stroke="none" stroke-width="1" fill="none" fill-rule="evenodd" sketch:type="MSPage">
        <g id="square" sketch:type="MSLayerGroup" fill="#2A3038">
            <path d="M8.4,4.8006 L1.7994,4.8006 C0.8052,4.8 0,5.58 0,6.6 L0,13.2 C0,14.22 0.78,15 1.8,15 L8.4,15 C9.3936,15 10.2,14.1948 10.2,13.2 L10.2,6.6 C10.2,5.58 9.42,4.8 8.4,4.8006 L8.4,4.8006 Z M8.9988,13.2 C8.9988,13.5306 8.7306,13.8 8.4,13.8012 L1.7994,13.8012 C1.4688,13.8 1.2,13.56 1.2,13.2 L1.2,6.6 C1.2006,6.2694 1.4694,6.0006 1.8,6.0006 L8.4,6.0006 C8.7306,6.0006 9,6.2406 9,6.6 L9,13.2 L8.9988,13.2 Z" id="Shape" sketch:type="MSShapeGroup"></path>
            <path d="M8.5596,0.7758 C8.3226,0.5412 7.9392,0.5412 7.7022,0.7758 C7.4652,1.0098 7.4652,1.3758 7.7022,1.6248 L7.8792,1.8 L2.3214,1.8 L2.4984,1.6248 C2.7354,1.3902 2.7354,1.0098 2.4984,0.7758 C2.262,0.5412 1.878,0.5412 1.6416,0.7758 L0,2.4 L1.6416,4.0242 C1.878,4.2642 2.2416,4.2642 2.4816,4.0242 C2.7186,3.7896 2.7186,3.4104 2.4816,3.1758 L2.3214,3.0006 L7.8792,3.0006 L7.7022,3.1758 C7.4652,3.411 7.4652,3.7758 7.7022,4.0242 C7.9392,4.2726 8.3226,4.2642 8.5422,4.0242 L10.2,2.4 L8.5596,0.7758 L8.5596,0.7758 Z" id="Shape" sketch:type="MSShapeGroup"></path>
            <path d="M10.9758,6.4404 C10.7412,6.6774 10.7412,7.0404 10.9758,7.2978 C11.2104,7.5552 11.5896,7.5378 11.8158,7.2978 L12,7.1208 L12,12.6786 L11.8248,12.5016 C11.5896,12.2646 11.2104,12.2646 10.9758,12.5016 C10.7412,12.7386 10.7412,13.1016 10.9758,13.3584 L12.6,15 L14.2242,13.3584 C14.4588,13.122 14.4588,12.7386 14.2242,12.5016 C13.9896,12.2646 13.6104,12.2646 13.3758,12.5016 L13.2006,12.6786 L13.2006,7.1208 L13.3758,7.2978 C13.611,7.5378 13.9758,7.5378 14.2158,7.2978 C14.4558,7.0578 14.4504,6.6774 14.2158,6.4404 L12.6,4.8 L10.9758,6.4404 L10.9758,6.4404 Z" id="Shape" sketch:type="MSShapeGroup"></path>
        </g>
    </g>
</svg>