<?xml version="1.0" encoding="UTF-8" standalone="no"?>
<svg width="15px" height="16px" viewBox="0 0 15 16" version="1.1" xmlns="http://www.w3.org/2000/svg" xmlns:xlink="http://www.w3.org/1999/xlink" xmlns:sketch="http://www.bohemiancoding.com/sketch/ns">
    <!-- Generator: Sketch 3.3.2 (12043) - http://www.bohemiancoding.com/sketch -->
    <title>bath</title>
    <desc>Created with Sketch.</desc>
    <defs></defs>
    <g id="Page-1" stroke="none" stroke-width="1" fill="none" fill-rule="evenodd" sketch:type="MSPage">
        <g id="bath" sketch:type="MSLayerGroup">
            <path d="M14.375625,8.125 L13.43,8.125 C13.628125,7.875 13.75,7.5625 13.75,7.1875 C13.75,6.3125 13.0625,5.625 12.1875,5.625 C11.3125,5.625 10.625,6.3125 10.625,7.1875 C10.625,7.5625 10.75,7.875 10.9375,8.125 L1.874375,8.125 L1.874375,8.12375 L1.874375,2.489375 L1.874375,2.4875 C1.926875,2.381875 1.8225,1.875625 2.499375,1.874375 L2.503125,1.874375 C2.505,1.875 2.6875,1.875 2.8125,1.94 L2.6825,2.0575 C2.43875,2.3025 2.43875,2.6825 2.6825,2.941875 C2.926875,3.191875 3.3075,3.191875 3.5575,2.941875 L4.8075,1.6925 C5.05125,1.448125 5.05125,1.051875 4.8075,0.808125 C4.563125,0.56375 4.168125,0.56375 3.923125,0.808125 L3.66625,1.075 C3.609375,1 3.5625,0.9375 3.4375,0.875 C2.985,0.625 2.5625,0.625 2.5,0.625 L2.49,0.625 L2.49,0.625625 C0.746875,0.625 0.625,2.3125 0.625,2.4875 L0.625,2.499375 L0.625,2.519375 L0.625,8.12375 C0.625,8.12375 0.625,8.12375 0.625,8.125 L0.624375,8.125 C0.279375,8.125 0,8.375 0,8.749375 C0,9.12375 0.279375,9.375 0.625,9.375 L0.625,9.375 L0.625,10.625625 C0.625625,12.250625 1.6875,13.625625 3.125,14.15625 L3.125,15 C3.125,15.375 3.375,15.625 3.75,15.625 C4.125,15.625 4.375,15.345625 4.375,15 L4.375,14.375 L10.625,14.375 L10.625,15 C10.625,15.375 10.875,15.625 11.25,15.625 C11.625,15.625 11.875,15.345625 11.875,15 L11.875,14.31125 C13.590625,13.978125 14.3725,12.2975 14.375,10.625625 L14.375,9.375 L14.375625,9.375 C14.72125,9.375 15,9.125 15,8.75 C15,8.375 14.72125,8.125 14.375,8.125 L14.375625,8.125 Z M13.125625,10.625625 C13.06875,12.2125 12.54625,13.106875 11.25,13.12375 L4.375,13.12375 C2.995,13.12125 1.8775,12.005 1.875,10.625625 L1.875,9.375 L11.358125,9.375 C11.12125,9.6775 10.85,9.95875 10.624375,10.001875 C10.286875,10.066875 10,10.280625 10,10.626875 C10,11.001875 10.25,11.251875 10.625,11.251875 C11.974375,11.134375 12.6175,9.998125 12.899375,9.3775 L13.12625,9.3775 L13.12625,10.625625 L13.125625,10.625625 Z" id="Shape" fill="#2A3038" sketch:type="MSShapeGroup"></path>
            <path d="M5.04120625,3.75084375 L4.59926875,4.19278125 L3.98055625,3.57406875 L4.42249375,3.13213125 L5.04120625,3.75084375 L5.04120625,3.75084375 Z" id="Rectangle-path" fill="#000000" sketch:type="MSShapeGroup"></path>
            <path d="M6.2129375,1.8783 L6.8312125,2.49745 L6.3889625,2.939075 L5.7706875,2.319925 L6.2129375,1.8783 L6.2129375,1.8783 Z" id="Rectangle-path" fill="#000000" sketch:type="MSShapeGroup"></path>
            <path d="M6.212,4.3782375 L6.8307125,4.99695 L6.388775,5.4388875 L5.7700625,4.820175 L6.212,4.3782375 L6.212,4.3782375 Z" id="Rectangle-path" fill="#000000" sketch:type="MSShapeGroup"></path>
            <path d="M8.087025,3.128425 L8.7055625,3.7473125 L8.2635,4.189125 L7.6449625,3.5702375 L8.087025,3.128425 L8.087025,3.128425 Z" id="Rectangle-path" fill="#000000" sketch:type="MSShapeGroup"></path>
            <path d="M8.9714125,6.0636375 L8.3533125,5.4443125 L8.7956875,5.0028125 L9.4137875,5.6221375 L8.9714125,6.0636375 L8.9714125,6.0636375 Z" id="Rectangle-path" fill="#000000" sketch:type="MSShapeGroup"></path>
        </g>
    </g>
</svg>