<?xml version="1.0" encoding="UTF-8" standalone="no"?>
<svg width="34px" height="26px" viewBox="0 0 34 26" version="1.1" xmlns="http://www.w3.org/2000/svg" xmlns:xlink="http://www.w3.org/1999/xlink" xmlns:sketch="http://www.bohemiancoding.com/sketch/ns">
    <!-- Generator: Sketch 3.3.2 (12043) - http://www.bohemiancoding.com/sketch -->
    <title>Group</title>
    <desc>Created with Sketch.</desc>
    <defs></defs>
    <g id="Page-1" stroke="none" stroke-width="1" fill="none" fill-rule="evenodd" sketch:type="MSPage">
        <g id="Group" sketch:type="MSLayerGroup" fill="#2A3038">
            <path d="M32.3681159,24.3043478 L15.6,24.3043478 C14.9971014,24.3043478 14.4695652,23.8144928 14.4695652,23.173913 C14.4695652,22.5710145 14.9594203,22.0434783 15.6,22.0434783 L32.3681159,22.0434783 C32.9710145,22.0434783 33.4985507,22.5333333 33.4985507,23.173913 C33.4608696,23.8144928 32.9710145,24.3043478 32.3681159,24.3043478 L32.3681159,24.3043478 Z" id="Shape" sketch:type="MSShapeGroup"></path>
            <path d="M32.0666667,18.8782609 L15.4115942,18.8782609 C14.8086957,18.8782609 14.2811594,18.3884058 14.2811594,17.7478261 C14.2811594,17.1449275 14.7710145,16.6173913 15.4115942,16.6173913 L32.0666667,16.6173913 C32.6695652,16.6173913 33.1971014,17.1072464 33.1971014,17.7478261 C33.1971014,18.3507246 32.7072464,18.8782609 32.0666667,18.8782609 L32.0666667,18.8782609 Z" id="Shape-Copy" sketch:type="MSShapeGroup"></path>
            <path d="M6.82028986,25.8115942 L3.84347826,25.8115942 C1.73333333,25.8115942 0,24.0782609 0,21.9681159 L0,18.9913043 C0,16.8434783 1.73333333,15.1101449 3.88115942,15.1101449 L6.85797101,15.1101449 C9.0057971,15.1101449 10.7391304,16.8434783 10.7391304,18.9913043 L10.7391304,21.9681159 C10.7014493,24.0782609 8.96811594,25.8115942 6.82028986,25.8115942 L6.82028986,25.8115942 Z M3.88115942,17.3710145 C2.97681159,17.3710145 2.26086957,18.1246377 2.26086957,18.9913043 L2.26086957,21.9681159 C2.26086957,22.8724638 3.01449275,23.5884058 3.88115942,23.5884058 L6.85797101,23.5884058 C7.76231884,23.5884058 8.51594203,22.8347826 8.51594203,21.9681159 L8.51594203,18.9913043 C8.51594203,18.0869565 7.76231884,17.3710145 6.85797101,17.3710145 L3.88115942,17.3710145 L3.88115942,17.3710145 Z" id="Shape-Copy-2" sketch:type="MSShapeGroup"></path>
            <path d="M32.3681159,9.34492754 L15.6,9.34492754 C14.9971014,9.34492754 14.4695652,8.85507246 14.4695652,8.21449275 C14.4695652,7.6115942 14.9594203,7.08405797 15.6,7.08405797 L32.3681159,7.08405797 C32.9710145,7.08405797 33.4985507,7.57391304 33.4985507,8.21449275 C33.4608696,8.85507246 32.9710145,9.34492754 32.3681159,9.34492754 L32.3681159,9.34492754 Z" id="Shape-Copy-3" sketch:type="MSShapeGroup"></path>
            <path d="M32.0666667,3.88115942 L15.4115942,3.88115942 C14.8086957,3.88115942 14.2811594,3.39130435 14.2811594,2.75072464 C14.2811594,2.14782609 14.7710145,1.62028986 15.4115942,1.62028986 L32.0666667,1.62028986 C32.6695652,1.62028986 33.1971014,2.11014493 33.1971014,2.75072464 C33.1971014,3.39130435 32.7072464,3.88115942 32.0666667,3.88115942 L32.0666667,3.88115942 Z" id="Shape-Copy-4" sketch:type="MSShapeGroup"></path>
            <path d="M6.82028986,10.8521739 L3.84347826,10.8521739 C1.73333333,10.8521739 0,9.11884058 0,6.97101449 L0,3.9942029 C0,1.84637681 1.73333333,0.113043478 3.88115942,0.113043478 L6.85797101,0.113043478 C9.0057971,0.113043478 10.7391304,1.84637681 10.7391304,3.9942029 L10.7391304,6.97101449 C10.7014493,9.11884058 8.96811594,10.8521739 6.82028986,10.8521739 L6.82028986,10.8521739 Z M3.88115942,2.37391304 C2.97681159,2.37391304 2.26086957,3.12753623 2.26086957,3.9942029 L2.26086957,6.97101449 C2.26086957,7.87536232 3.01449275,8.59130435 3.88115942,8.59130435 L6.85797101,8.59130435 C7.76231884,8.59130435 8.51594203,7.83768116 8.51594203,6.97101449 L8.51594203,3.9942029 C8.51594203,3.08985507 7.76231884,2.37391304 6.85797101,2.37391304 L3.88115942,2.37391304 L3.88115942,2.37391304 Z" id="Shape-Copy-5" sketch:type="MSShapeGroup"></path>
        </g>
    </g>
</svg>