<?xml version="1.0" encoding="UTF-8" standalone="no"?>
<svg width="31px" height="26px" viewBox="0 0 31 26" version="1.1" xmlns="http://www.w3.org/2000/svg" xmlns:xlink="http://www.w3.org/1999/xlink" xmlns:sketch="http://www.bohemiancoding.com/sketch/ns">
    <!-- Generator: Sketch 3.3.2 (12043) - http://www.bohemiancoding.com/sketch -->
    <title>Group</title>
    <desc>Created with Sketch.</desc>
    <defs></defs>
    <g id="Page-1" stroke="none" stroke-width="1" fill="none" fill-rule="evenodd" sketch:type="MSPage">
        <g id="Group" sketch:type="MSLayerGroup" fill="#2A3038">
            <rect id="Rectangle-path-Copy-3" sketch:type="MSShapeGroup" x="9.94117647" y="3.05882353" width="20.6470588" height="1.52941176"></rect>
            <rect id="Rectangle-path-Copy" sketch:type="MSShapeGroup" x="9.94117647" y="12.2352941" width="20.6470588" height="1.52941176"></rect>
            <rect id="Rectangle-path-Copy-2" sketch:type="MSShapeGroup" x="9.94117647" y="21.4117647" width="9.94117647" height="1.52941176"></rect>
            <path d="M6.11764706,7.64705882 L1.52941176,7.64705882 C0.685941176,7.64705882 0,6.96111765 0,6.11764706 L0,1.52941176 C0,0.685941176 0.685941176,0 1.52941176,0 L6.11764706,0 C6.96111765,0 7.64705882,0.685941176 7.64705882,1.52941176 L7.64705882,6.11764706 C7.64705882,6.96111765 6.96111765,7.64705882 6.11764706,7.64705882 L6.11764706,7.64705882 Z M1.52941176,1.52941176 L1.52941176,6.11764706 L6.11841176,6.11764706 L6.11764706,1.52941176 L1.52941176,1.52941176 L1.52941176,1.52941176 Z" id="Shape-Copy" sketch:type="MSShapeGroup"></path>
            <path d="M6.11764706,16.8235294 L1.52941176,16.8235294 C0.685941176,16.8235294 0,16.1375882 0,15.2941176 L0,10.7058824 C0,9.86241176 0.685941176,9.17647059 1.52941176,9.17647059 L6.11764706,9.17647059 C6.96111765,9.17647059 7.64705882,9.86241176 7.64705882,10.7058824 L7.64705882,15.2941176 C7.64705882,16.1375882 6.96111765,16.8235294 6.11764706,16.8235294 L6.11764706,16.8235294 Z M1.52941176,10.7058824 L1.52941176,15.2941176 L6.11841176,15.2941176 L6.11764706,10.7058824 L1.52941176,10.7058824 L1.52941176,10.7058824 Z" id="Shape-Copy-2" sketch:type="MSShapeGroup"></path>
            <path d="M6.11764706,26 L1.52941176,26 C0.685941176,26 0,25.3140588 0,24.4705882 L0,19.8823529 C0,19.0388824 0.685941176,18.3529412 1.52941176,18.3529412 L6.11764706,18.3529412 C6.96111765,18.3529412 7.64705882,19.0388824 7.64705882,19.8823529 L7.64705882,24.4705882 C7.64705882,25.3140588 6.96111765,26 6.11764706,26 L6.11764706,26 Z M1.52941176,19.8823529 L1.52941176,24.4705882 L6.11841176,24.4705882 L6.11764706,19.8823529 L1.52941176,19.8823529 L1.52941176,19.8823529 Z" id="Shape" sketch:type="MSShapeGroup"></path>
        </g>
    </g>
</svg>