<?xml version="1.0" encoding="UTF-8" standalone="no"?>
<svg width="26px" height="27px" viewBox="0 0 26 27" version="1.1" xmlns="http://www.w3.org/2000/svg" xmlns:xlink="http://www.w3.org/1999/xlink" xmlns:sketch="http://www.bohemiancoding.com/sketch/ns">
    <!-- Generator: Sketch 3.3.2 (12043) - http://www.bohemiancoding.com/sketch -->
    <title>Shape</title>
    <desc>Created with Sketch.</desc>
    <defs></defs>
    <g id="Page-1" stroke="none" stroke-width="1" fill="none" fill-rule="evenodd" sketch:type="MSPage">
        <path d="M17.8506659,7.5306848 C16.6173073,7.5306848 15.6167748,6.53051663 15.6167748,5.29642936 C15.6167748,4.06197772 16.6173073,3.06253827 17.8506659,3.06253827 C19.0847531,3.06253827 20.0852857,4.06234208 20.0852857,5.29642936 C20.0852857,6.53051663 19.0847531,7.5306848 17.8506659,7.5306848 L17.8506659,7.5306848 Z M17.8506659,13.452992 C17.8506659,13.452992 22.4926121,7.66221876 22.4926121,5.09858188 C22.4926121,2.53494501 20.4146671,0.457 17.8506659,0.457 C15.2873933,0.457 13.2094483,2.53494501 13.2094483,5.09858188 C13.2094483,7.66258312 17.8506659,13.452992 17.8506659,13.452992 L17.8506659,13.452992 Z M7.05103582,24.6268198 L2.22545214,22.6385073 L2.22545214,8.81760428 L7.05103582,10.8048236 L7.05103582,24.6268198 L7.05103582,24.6268198 Z M25.2311418,24.338611 L25.2311418,6.8577119 L23.4847643,5.92786521 C23.3517729,6.42084428 23.1411729,6.95645346 22.879198,7.50955192 L23.539054,7.99160018 L23.539054,21.8121389 L18.7134703,19.8252839 L18.7134703,13.5608426 C18.5403993,13.7852883 18.412509,13.9463355 18.3491103,14.0254016 L17.8506659,14.646271 L17.3533145,14.0254016 C17.2942882,13.9510721 17.177693,13.8053281 17.0217469,13.6034727 L17.0217469,20.5204827 L8.74239488,23.9305278 L8.74239488,10.1092604 L13.1147147,8.60846164 C12.8392586,8.0797753 12.5995097,7.55874052 12.4187872,7.06503274 L7.05103582,8.97464343 L0.533,6.29149648 L0.533,23.7723956 L7.05103582,26.457 L18.7134703,21.654371 L18.7134703,21.6550997 L25.2311418,24.338611 L25.2311418,24.338611 Z" id="Shape" fill="#2A3038" sketch:type="MSShapeGroup"></path>
    </g>
</svg>